# xmcd CD database file
#
# Track frame offsets:
#	150
#	15555
#	29747
#	50905
#	66415
#	82525
#	95182
#	112635
#	126985
#	139152
#	153760
#	167037
#	181990
#
# Disc length: 2613 seconds
#
# Revision: 0
# Processed by: cddbd v1.4PL0 Copyright (c) Steve Scherf et al.
# Submitted via: Feurio! 1.63 - http://www.feurio.com
#
DISCID=aa0a330d
DTITLE=Leonardo - Exageros de Gaúcho
DYEAR=1900
DGENRE=
TTITLE0=Exageros de gaúcho
TTITLE1=Apostando na vanera
TTITLE2=Céu, sol, sul, terra e cor
TTITLE3=Terezona dançadeira
TTITLE4=Adeus querida
TTITLE5=Carreirada
TTITLE6=Salso chorão
TTITLE7=Cartinha mentirosa
TTITLE8=Bagual de chácara
TTITLE9=Eu e a noite
TTITLE10=Flores do campo
TTITLE11=Coração covarde
TTITLE12=Gauchinha
EXTD=
EXTT0=
EXTT1=
EXTT2=
EXTT3=
EXTT4=
EXTT5=
EXTT6=
EXTT7=
EXTT8=
EXTT9=
EXTT10=
EXTT11=
EXTT12=
PLAYORDER=
